# xmcd
#
# Track frame offsets: 
#        150
#        11567
#        23670
#        38300
#        53155
#        66727
#        80782
#        101715
#        114682
#        128290
#        141292
#        151352
#
# Disc length: 2200 seconds
#
# Revision: 5
# Processed by: cddbd v1.5.2PL0 Copyright (c) Steve Scherf et al.
# Submitted via: ExactAudioCopy v0.99pb4
#
DISCID=8e08960c,9a08960c
DTITLE=Blue Ridge Rangers - Blue Ridge Rangers
DYEAR=1973
DGENRE=Country
TTITLE0=Blue Ridge Mountain Blues
TTITLE1=Somewhere Listening (For My Name)
TTITLE2=You're The Reason
TTITLE3=Jambalaya (On The Bayou)
TTITLE4=She Thinks I Still Care
TTITLE5=California Blues (Blue Yodel #4)
TTITLE6=Workin' On A Building
TTITLE7=Please Help Me I'm Falling
TTITLE8=Have Thine Own Way, Lord
TTITLE9=I Ain't Never
TTITLE10=Hearts Of Stone
TTITLE11=Today I Started Loving You Again
EXTD=1973\nBRR =John Fogerty YEAR: 1973
EXTT0=
EXTT1=
EXTT2=
EXTT3=
EXTT4=
EXTT5=
EXTT6=
EXTT7=
EXTT8=
EXTT9=
EXTT10=
EXTT11=
PLAYORDER=
